# This file uses centimeters as units for non-parametric coordinates.

mtllib test.mtl
g default
v -3.161812 -3.161812 3.161812
v 3.161812 -3.161812 3.161812
v -3.161812 3.161812 3.161812
v 3.161812 3.161812 3.161812
v -3.161812 3.161812 -3.161812
v 3.161812 3.161812 -3.161812
v -3.161812 -3.161812 -3.161812
v 3.161812 -3.161812 -3.161812
vt 0.000998 0.667599
vt 0.349536 0.667599
vt 0.000998 0.999002
vt 0.349536 0.999002
vt 0.353951 0.667599
vt 0.702489 0.667599
vt 0.353951 0.999002
vt 0.702489 0.999002
vt 0.353951 0.332401
vt 0.353951 0.000998
vt 0.702488 0.332401
vt 0.702488 0.000998
vt 0.297786 0.334299
vt 0.646324 0.334299
vt 0.297786 0.665701
vt 0.646324 0.665701
vt 0.000998 0.000998
vt 0.349536 0.000998
vt 0.000998 0.332401
vt 0.349536 0.332401
vt 0.650464 0.334298
vt 0.999002 0.334298
vt 0.650464 0.665701
vt 0.999002 0.665701
vn 0.000000 0.000000 1.000000
vn 0.000000 0.000000 1.000000
vn 0.000000 0.000000 1.000000
vn 0.000000 0.000000 1.000000
vn 0.000000 1.000000 0.000000
vn 0.000000 1.000000 0.000000
vn 0.000000 1.000000 0.000000
vn 0.000000 1.000000 0.000000
vn 0.000000 0.000000 -1.000000
vn 0.000000 0.000000 -1.000000
vn 0.000000 0.000000 -1.000000
vn 0.000000 0.000000 -1.000000
vn 0.000000 -1.000000 0.000000
vn 0.000000 -1.000000 0.000000
vn 0.000000 -1.000000 0.000000
vn 0.000000 -1.000000 0.000000
vn 1.000000 0.000000 0.000000
vn 1.000000 0.000000 0.000000
vn 1.000000 0.000000 0.000000
vn 1.000000 0.000000 0.000000
vn -1.000000 0.000000 0.000000
vn -1.000000 0.000000 0.000000
vn -1.000000 0.000000 0.000000
vn -1.000000 0.000000 0.000000
s 1
g pCube1
usemtl initialShadingGroup
f 1/17/1 2/18/2 3/19/3
f 3/19/3 2/18/2 4/20/4
s 2
f 3/9/5 4/10/6 5/11/7
f 5/11/7 4/10/6 6/12/8
s 3
f 5/21/9 6/22/10 7/23/11
f 7/23/11 6/22/10 8/24/12
s 4
f 7/13/13 8/14/14 1/15/15
f 1/15/15 8/14/14 2/16/16
s 5
f 2/1/17 8/2/18 4/3/19
f 4/3/19 8/2/18 6/4/20
s 6
f 7/5/21 1/6/22 5/7/23
f 5/7/23 1/6/22 3/8/24
